<?xml version="1.0" standalone="no"?><!DOCTYPE svg PUBLIC "-//W3C//DTD SVG 1.1//EN" "http://www.w3.org/Graphics/SVG/1.1/DTD/svg11.dtd"><svg t="1658035614457" class="icon" viewBox="0 0 1024 1024" version="1.1" xmlns="http://www.w3.org/2000/svg" p-id="18724" xmlns:xlink="http://www.w3.org/1999/xlink" width="200" height="200"><defs><style type="text/css">@font-face { font-family: feedback-iconfont; src: url("//at.alicdn.com/t/font_1031158_u69w8yhxdu.woff2?t=1630033759944") format("woff2"), url("//at.alicdn.com/t/font_1031158_u69w8yhxdu.woff?t=1630033759944") format("woff"), url("//at.alicdn.com/t/font_1031158_u69w8yhxdu.ttf?t=1630033759944") format("truetype"); }
</style></defs><path d="M901.17 391.43L799 493.59a117.91 117.91 0 0 1-166.44 0L530.41 391.43a117.82 117.82 0 0 1 0-166.44l102.16-102.16a117.82 117.82 0 0 1 166.44 0L901.17 225a117.82 117.82 0 0 1 0 166.43z" fill="#FF9600" p-id="18725"></path><path d="M905.71 673.43v144.48A117.81 117.81 0 0 1 788 935.59H643.55a117.84 117.84 0 0 1-117.68-117.68V673.43a117.81 117.81 0 0 1 117.68-117.68H788a117.77 117.77 0 0 1 117.71 117.68zM468.25 673.43v144.48a117.81 117.81 0 0 1-117.68 117.68H206.09A117.84 117.84 0 0 1 88.41 817.91V673.43a117.81 117.81 0 0 1 117.68-117.68h144.48a117.77 117.77 0 0 1 117.68 117.68zM468.25 236v144.45a117.81 117.81 0 0 1-117.68 117.68H206.09A117.84 117.84 0 0 1 88.41 380.45V236a117.81 117.81 0 0 1 117.68-117.71h144.48A117.77 117.77 0 0 1 468.25 236z" fill="#142E4F" p-id="18726"></path></svg>