<?xml version="1.0" standalone="no"?><!DOCTYPE svg PUBLIC "-//W3C//DTD SVG 1.1//EN" "http://www.w3.org/Graphics/SVG/1.1/DTD/svg11.dtd"><svg t="1658037879224" class="icon" viewBox="0 0 1024 1024" version="1.1" xmlns="http://www.w3.org/2000/svg" p-id="24809" xmlns:xlink="http://www.w3.org/1999/xlink" width="200" height="200"><defs><style type="text/css">@font-face { font-family: feedback-iconfont; src: url("//at.alicdn.com/t/font_1031158_u69w8yhxdu.woff2?t=1630033759944") format("woff2"), url("//at.alicdn.com/t/font_1031158_u69w8yhxdu.woff?t=1630033759944") format("woff"), url("//at.alicdn.com/t/font_1031158_u69w8yhxdu.ttf?t=1630033759944") format("truetype"); }
</style></defs><path d="M561.43872 88.4736l317.56288 101.13024a48.90624 48.90624 0 0 1 34.03776 46.57152V661.0944c-42.1888 65.1264-99.16416 125.29664-170.88512 180.59264-71.68 55.296-146.75968 96.91136-225.28 124.928-112.14848-48.7424-191.488-91.05408-237.9776-126.976-46.53056-35.84-99.24608-95.35488-158.1056-178.54464V236.17536a48.90624 48.90624 0 0 1 34.03776-46.61248l317.56288-101.08928a146.71872 146.71872 0 0 1 89.04704 0z m-69.79584 223.55968c-86.8352 0-157.61408 71.14752-157.61408 158.47424 0 87.28576 70.73792 158.43328 157.65504 158.43328 28.672 0 56.85248-7.90528 81.34656-22.69184l4.87424-3.072 73.9328 81.38752a22.1184 22.1184 0 0 0 28.71296 3.64544 22.528 22.528 0 0 0 4.25984-33.9968l-73.3184-80.73216a158.26944 158.26944 0 0 0 37.84704-102.97344c0-87.32672-70.77888-158.47424-157.696-158.47424z" fill="#2E78DD" p-id="24810"></path></svg>